HIERARCHY
ROOT joint_Root
{
	OFFSET 0.0 0.0 0.0
	CHANNELS 6 Xposition Yposition Zposition Zrotation Xrotation Yrotation 
	JOINT Hips
	{
		OFFSET 4.5925 91.4895 -427.239
		CHANNELS 6 Xposition Yposition Zposition Zrotation Xrotation Yrotation 
		JOINT Spine
		{
			OFFSET 15.7357 0.0 0.0
			CHANNELS 6 Xposition Yposition Zposition Zrotation Xrotation Yrotation 
			JOINT Chest
			{
				OFFSET 8.98455 -0.406207 0.0
				CHANNELS 6 Xposition Yposition Zposition Zrotation Xrotation Yrotation 
				JOINT Neck
				{
					OFFSET 16.3773 0.0 0.0
					CHANNELS 6 Xposition Yposition Zposition Zrotation Xrotation Yrotation 
					JOINT Head
					{
						OFFSET 6.45672 0.0 0.0
						CHANNELS 6 Xposition Yposition Zposition Zrotation Xrotation Yrotation 
						End Site
						{
							OFFSET 0.0 0.0 0.0
						}
					}
				}
				JOINT Shoulder_L
				{
					OFFSET 12.9942 -0.242716 4.98039
					CHANNELS 6 Xposition Yposition Zposition Zrotation Xrotation Yrotation 
					JOINT UpperArm_L
					{
						OFFSET 5.34809 0.0 0.0
						CHANNELS 6 Xposition Yposition Zposition Zrotation Xrotation Yrotation 
						JOINT LowerArm_L
						{
							OFFSET 24.3286 1.87007e-05 0.0
							CHANNELS 6 Xposition Yposition Zposition Zrotation Xrotation Yrotation 
							JOINT Hand_L
							{
								OFFSET 22.2916 0.0 0.0
								CHANNELS 6 Xposition Yposition Zposition Zrotation Xrotation Yrotation 
								End Site
								{
									OFFSET 0.0 0.0 0.0
								}
							}
						}
					}
				}
				JOINT Shoulder_R
				{
					OFFSET 12.9945 -0.242716 -4.98039
					CHANNELS 6 Xposition Yposition Zposition Zrotation Xrotation Yrotation 
					JOINT UpperArm_R
					{
						OFFSET -5.34813 0.0 0.0
						CHANNELS 6 Xposition Yposition Zposition Zrotation Xrotation Yrotation 
						JOINT LowerArm_R
						{
							OFFSET -24.3289 0.000322201 0.0
							CHANNELS 6 Xposition Yposition Zposition Zrotation Xrotation Yrotation 
							JOINT Hand_R
							{
								OFFSET -22.2915 -0.000108084 0.0
								CHANNELS 6 Xposition Yposition Zposition Zrotation Xrotation Yrotation 
								End Site
								{
									OFFSET 0.0 0.0 0.0
								}
							}
						}
					}
				}
			}
		}
		JOINT UpperLeg_L
		{
			OFFSET -2.19248 -6.46944 0.0
			CHANNELS 6 Xposition Yposition Zposition Zrotation Xrotation Yrotation 
			JOINT LowerLeg_L
			{
				OFFSET 39.0811 0.0 -1.23785e-05
				CHANNELS 6 Xposition Yposition Zposition Zrotation Xrotation Yrotation 
				JOINT Foot_L
				{
					OFFSET 40.9854 0.0 -1.26872e-05
					CHANNELS 6 Xposition Yposition Zposition Zrotation Xrotation Yrotation 
					JOINT Toes_L
					{
						OFFSET 11.7543 0.0 0.0
						CHANNELS 6 Xposition Yposition Zposition Zrotation Xrotation Yrotation 
						End Site
						{
							OFFSET 0.0 0.0 0.0
						}
					}
				}
			}
		}
		JOINT UpperLeg_R
		{
			OFFSET -2.19251 6.46944 0.0
			CHANNELS 6 Xposition Yposition Zposition Zrotation Xrotation Yrotation 
			JOINT LowerLeg_R
			{
				OFFSET -39.0811 -0.00228153 -0.0401928
				CHANNELS 6 Xposition Yposition Zposition Zrotation Xrotation Yrotation 
				JOINT Foot_R
				{
					OFFSET -40.9854 0.0 0.0
					CHANNELS 6 Xposition Yposition Zposition Zrotation Xrotation Yrotation 
					JOINT Toes_R
					{
						OFFSET -11.7543 0.0 0.0
						CHANNELS 6 Xposition Yposition Zposition Zrotation Xrotation Yrotation 
						End Site
						{
							OFFSET 0.0 0.0 0.0
						}
					}
				}
			}
		}
	}
}
MOTION
Frames:	7
Frame Time:	0.0333333
0.000000 0.000000 0.000000 0.000000 0.000000 -0.000000 -7.363180 90.458000 -0.409434 84.873900 0.038274 6.320310 15.735700 0.000005 -0.000001 75.760300 84.159200 -80.315400 8.984550 -0.406207 -0.000000 3.468920 -2.699680 -9.019400 16.377300 -0.000001 -0.000001 3.036400 -0.763201 0.175860 6.456720 -0.000001 -0.000000 -1.218480 0.221537 2.291330 12.994200 -0.242716 4.980390 -92.128500 5.476560 -68.723100 5.348090 -0.000007 -0.000001 -63.942400 2.733720 -0.970101 24.328600 0.000019 0.000005 6.767030 12.979200 -27.847900 22.291600 -0.000001 0.000005 14.608200 5.204740 2.600070 12.994500 -0.242716 -4.980390 90.376700 -1.172780 -72.191900 -5.348130 -0.000001 -0.000004 -46.742900 -48.648600 -49.099300 -24.328900 0.000322 -0.000009 -14.564100 -28.621400 -28.472900 -22.291500 -0.000108 -0.000004 25.928300 4.981810 7.701370 -2.192480 -6.469440 -0.000000 -164.512000 -14.312400 -4.784210 39.081100 -0.000007 -0.000012 -0.199635 0.315121 32.355400 40.985400 -0.000006 -0.000013 -3.789450 11.721500 -69.688000 11.754300 -0.000000 0.000003 -0.000238 -0.002143 -16.658000 -2.192510 6.469440 -0.000001 -176.089000 23.852800 178.615000 -39.081100 -0.002282 -0.040193 -0.002530 0.010792 28.401500 -40.985400 0.000008 0.000006 10.182000 11.520300 -72.564800 -11.754300 -0.000006 -0.000006 -0.040542 -0.048423 -16.542900
0.000000 0.000000 0.000000 0.000000 0.000000 -0.000000 -7.119790 90.441500 -0.358434 84.994900 -0.133413 6.462200 15.735700 0.000005 -0.000001 74.274600 84.095500 -78.634700 8.984550 -0.406207 -0.000000 3.504640 -3.034930 -8.618890 16.377300 -0.000001 -0.000001 3.443300 -0.945941 0.662609 6.456720 -0.000001 -0.000000 -0.940933 0.439465 2.574310 12.994200 -0.242716 4.980390 -92.171000 5.586010 -68.721500 5.348090 -0.000007 -0.000001 -64.063500 3.209890 -0.775831 24.328600 0.000019 0.000005 6.228400 12.444000 -26.860000 22.291600 -0.000001 0.000005 14.509400 5.201900 2.671930 12.994500 -0.242716 -4.980390 90.521700 -1.567960 -71.596600 -5.348130 -0.000001 -0.000004 -49.866700 -48.929800 -53.756600 -24.328900 0.000322 -0.000009 -15.146800 -28.677600 -29.424800 -22.291500 -0.000108 -0.000004 26.979000 4.988000 7.572760 -2.192480 -6.469440 -0.000000 -164.733000 -14.453700 -4.586520 39.081100 -0.000007 -0.000012 -0.202833 0.318564 32.485700 40.985400 -0.000006 -0.000013 -3.608180 11.650200 -69.873200 11.754300 -0.000000 0.000003 -0.000250 -0.002233 -16.661200 -2.192510 6.469440 -0.000001 -176.281000 23.120300 178.627000 -39.081100 -0.002282 -0.040193 0.009127 -0.010646 28.674300 -40.985400 0.000008 0.000006 10.213700 10.943600 -72.655500 -11.754300 -0.000006 -0.000006 -0.062759 -0.075048 -16.525600
0.000000 0.000000 0.000000 0.000000 0.000000 -0.000000 -6.758160 90.447700 -0.303457 85.251800 -0.997409 6.572540 15.735700 0.000005 -0.000001 74.465200 84.106900 -78.556200 8.984550 -0.406207 -0.000000 3.499730 -3.000820 -8.082590 16.377300 -0.000001 -0.000001 4.174030 -1.258610 1.180500 6.456720 -0.000001 -0.000000 -0.458847 0.287430 2.750130 12.994200 -0.242716 4.980390 -92.192200 5.600710 -68.583800 5.348090 -0.000007 -0.000001 -64.273900 4.140880 -0.871763 24.328600 0.000019 0.000005 6.412970 13.604900 -25.540800 22.291600 -0.000001 0.000005 14.282500 5.199700 2.726780 12.994500 -0.242716 -4.980390 90.857200 -2.509450 -71.134000 -5.348130 -0.000001 -0.000004 -50.615600 -50.407100 -59.631700 -24.328900 0.000322 -0.000009 -17.399000 -28.032400 -33.693600 -22.291500 -0.000108 -0.000004 26.475300 5.089550 5.348610 -2.192480 -6.469440 -0.000000 -165.115000 -15.025100 -4.139680 39.081100 -0.000007 -0.000012 -0.200084 0.314421 32.471200 40.985400 -0.000006 -0.000013 -3.426790 11.288800 -70.062900 11.754300 -0.000000 0.000003 -0.000258 -0.002292 -16.663400 -2.192510 6.469440 -0.000001 -176.805000 22.366600 178.635000 -39.081100 -0.002282 -0.040193 0.006703 -0.006142 28.960900 -40.985400 0.000008 0.000006 9.965080 11.189400 -72.685200 -11.754300 -0.000006 -0.000006 -0.089651 -0.107374 -16.504800
0.000000 0.000000 0.000000 0.000000 0.000000 -0.000000 -6.456060 90.531000 -0.234286 85.540200 -1.786280 6.540110 15.735700 0.000005 -0.000001 74.255100 84.165400 -78.053100 8.984550 -0.406207 -0.000000 3.380720 -3.017730 -7.499700 16.377300 -0.000001 -0.000001 5.099060 -1.520620 1.845680 6.456720 -0.000001 -0.000000 -0.068053 0.333607 2.710840 12.994200 -0.242716 4.980390 -92.132700 5.426460 -68.506500 5.348090 -0.000007 -0.000001 -64.679300 4.073620 -0.703169 24.328600 0.000019 0.000005 7.084090 15.593800 -24.811500 22.291600 -0.000001 0.000005 13.379800 5.183650 3.126380 12.994500 -0.242716 -4.980390 91.375500 -3.869600 -70.417400 -5.348130 -0.000001 -0.000004 -50.744100 -52.790200 -66.685600 -24.328900 0.000322 -0.000009 -19.151100 -24.430500 -40.023300 -22.291500 -0.000108 -0.000004 26.607700 5.198160 2.773090 -2.192480 -6.469440 -0.000000 -165.498000 -15.711300 -3.594780 39.081100 -0.000007 -0.000012 -0.197541 0.316370 31.980900 40.985400 -0.000006 -0.000013 -3.284440 11.100200 -70.016400 11.754300 -0.000000 0.000003 -0.000266 -0.002349 -16.665400 -2.192510 6.469440 -0.000001 -177.256000 21.747000 178.671000 -39.081100 -0.002282 -0.040193 0.013721 -0.018892 28.870700 -40.985400 0.000008 0.000006 9.940320 11.470100 -72.544000 -11.754300 -0.000006 -0.000006 -0.136290 -0.164785 -16.534000
0.000000 0.000000 0.000000 0.000000 0.000000 -0.000000 -6.241560 90.642500 -0.175700 85.797100 -2.152140 6.364540 15.735700 0.000005 -0.000001 73.534800 84.174900 -76.983300 8.984550 -0.406207 -0.000000 3.324960 -3.164840 -6.798690 16.377300 -0.000001 -0.000001 5.763260 -1.813720 2.571980 6.456720 -0.000001 -0.000000 0.147300 0.597501 2.440420 12.994200 -0.242716 4.980390 -92.063200 5.280910 -68.624300 5.348090 -0.000007 -0.000001 -65.106500 3.699790 -0.640027 24.328600 0.000019 0.000005 7.020970 16.018600 -24.050900 22.291600 -0.000001 0.000005 13.085300 5.175950 3.315350 12.994500 -0.242716 -4.980390 92.053400 -5.426270 -69.238800 -5.348130 -0.000001 -0.000004 -52.069000 -56.149100 -75.745300 -24.328900 0.000322 -0.000009 -19.289500 -18.922300 -47.193200 -22.291500 -0.000108 -0.000004 28.431400 5.307910 -0.138171 -2.192480 -6.469440 -0.000000 -165.900000 -16.137800 -3.286380 39.081100 -0.000007 -0.000012 -0.193241 0.317327 31.340300 40.985400 -0.000006 -0.000013 -3.181840 11.023900 -69.814800 11.754300 -0.000000 0.000003 -0.000257 -0.002282 -16.663000 -2.192510 6.469440 -0.000001 -177.572000 21.356800 178.635000 -39.081100 -0.002282 -0.040193 0.013603 -0.018915 28.564100 -40.985400 0.000008 0.000006 9.709210 11.568000 -72.222600 -11.754300 -0.000006 -0.000006 -0.153560 -0.187186 -16.614800
0.000000 0.000000 0.000000 0.000000 0.000000 -0.000000 -6.122750 90.748700 -0.109520 85.997000 -2.063490 6.258110 15.735700 0.000005 -0.000001 73.411500 84.133000 -76.504400 8.984550 -0.406207 -0.000000 3.404650 -3.228490 -6.084100 16.377300 -0.000001 -0.000001 6.217760 -2.303990 3.417560 6.456720 -0.000001 -0.000000 0.241002 0.808674 1.930490 12.994200 -0.242716 4.980390 -91.969800 5.141630 -69.004600 5.348090 -0.000007 -0.000001 -65.399100 3.533770 -0.782488 24.328600 0.000019 0.000005 6.718230 15.781800 -23.417900 22.291600 -0.000001 0.000005 13.457600 5.171600 3.421650 12.994500 -0.242716 -4.980390 92.831700 -6.939620 -67.738900 -5.348130 -0.000001 -0.000004 -55.006800 -60.469500 -86.268700 -24.328900 0.000322 -0.000009 -17.313500 -12.795800 -54.622000 -22.291500 -0.000108 -0.000004 29.584100 5.404740 -3.080780 -2.192480 -6.469440 -0.000000 -166.220000 -16.217400 -3.056940 39.081100 -0.000007 -0.000012 -0.187630 0.315846 30.713000 40.985400 -0.000006 -0.000013 -3.116450 11.077900 -69.559700 11.754300 -0.000000 0.000003 -0.000223 -0.002032 -16.653900 -2.192510 6.469440 -0.000001 -177.815000 21.262400 178.758000 -39.081100 -0.002282 -0.040193 0.013595 -0.019235 28.142200 -40.985400 0.000008 0.000006 9.605140 11.513100 -71.969300 -11.754300 -0.000006 -0.000006 -0.164229 -0.200868 -16.657900
0.000000 0.000000 0.000000 0.000000 0.000000 -0.000000 -6.119110 90.816100 -0.113930 86.118300 -1.837950 6.027650 15.735700 0.000005 -0.000001 74.467100 84.139900 -77.249100 8.984550 -0.406207 -0.000000 3.462730 -3.030400 -5.467020 16.377300 -0.000001 -0.000001 6.484770 -2.800710 4.254340 6.456720 -0.000001 -0.000000 0.260741 0.977246 1.341310 12.994200 -0.242716 4.980390 -91.804400 4.834150 -69.503800 5.348090 -0.000007 -0.000001 -65.752200 3.440430 -1.113730 24.328600 0.000019 0.000005 6.803870 16.018000 -23.382700 22.291600 -0.000001 0.000005 14.000100 5.161620 3.663890 12.994500 -0.242716 -4.980390 93.539100 -8.139520 -66.404100 -5.348130 -0.000001 -0.000004 -57.293100 -65.911400 -96.012000 -24.328900 0.000322 -0.000009 -14.653500 -8.344050 -60.976100 -22.291500 -0.000108 -0.000004 31.758200 5.492260 -6.178350 -2.192480 -6.469440 -0.000000 -166.406000 -16.347500 -3.157540 39.081100 -0.000007 -0.000012 -0.182679 0.312484 30.311000 40.985400 -0.000006 -0.000013 -3.076280 11.319900 -69.314500 11.754300 -0.000000 0.000003 -0.000226 -0.002055 -16.654800 -2.192510 6.469440 -0.000001 -177.817000 21.225100 178.632000 -39.081100 -0.002282 -0.040193 0.013234 -0.018797 27.842200 -40.985400 0.000008 0.000006 9.477100 11.314400 -71.761300 -11.754300 -0.000006 -0.000006 -0.193302 -0.236174 -16.649600
